<?xml version="1.0" encoding="utf-8"?>
<!-- Generator: Adobe Illustrator 23.1.0, SVG Export Plug-In . SVG Version: 6.00 Build 0)  -->
<svg version="1.1" id="Layer_1" xmlns="http://www.w3.org/2000/svg" xmlns:xlink="http://www.w3.org/1999/xlink" x="0px" y="0px"
	 viewBox="0 0 308 149.68" style="enable-background:new 0 0 308 149.68;" xml:space="preserve">
<style type="text/css">
	.st0{fill:#F99D1C;}
</style>
<g>
	<path class="st0" d="M166.74,14.78c0,8.16-6.62,14.78-14.78,14.78c-8.16,0-14.77-6.61-14.77-14.78C137.19,6.62,143.8,0,151.96,0
		C160.13,0,166.74,6.62,166.74,14.78z"/>
	<g>
		<polygon points="296.54,72.13 296.54,56.29 281.81,56.29 281.81,100.72 296.54,100.72 296.54,84.89 308,84.89 308,72.13 		"/>
		<path d="M267.29,105.82c-12.6,0-22.82,9.82-22.82,21.94c0,12.11,10.22,21.92,22.82,21.92c12.6,0,22.82-9.81,22.82-21.92
			C290.11,115.65,279.9,105.82,267.29,105.82z M267.29,136.37c-4.68,0-8.47-3.86-8.47-8.62c0-4.76,3.8-8.62,8.47-8.62
			c4.68,0,8.47,3.86,8.47,8.62C275.76,132.5,271.97,136.37,267.29,136.37z"/>
		<polygon points="106.99,101.82 144.81,101.82 144.81,118.01 159.53,118.01 159.53,101.82 196.55,101.82 196.55,89.07 
			106.99,89.07 		"/>
		<path d="M86.73,117.42c0-4.05-3.29-7.34-7.35-7.34H51.38V98.49h35.34V85.74V65.88c0-4.06-3.29-7.34-7.35-7.34H0v12.75h72v14.45H0
			v12.75h36.66v11.58H0v12.75h72v21.16h14.73V117.42z"/>
		<path d="M116.95,142.25c-4.06,0-7.34-3.29-7.34-7.34v-18.06h14.72v12.65h70.35v12.76H116.95z"/>
		<path d="M212.67,65.88c0-4.06,3.29-7.34,7.34-7.34h46v12.75h-38.63v15.6h39.08V99.6h-53.8V65.88z"/>
		<polygon points="151.96,39.24 112.98,72.91 122.18,83.56 151.96,57.84 181.74,83.56 190.94,72.91 		"/>
	</g>
</g>
</svg>
